<svg xmlns="http://www.w3.org/2000/svg" viewBox="0 0 640 480" width="640" height="480">
  <rect width="640" height="480" fill="#f2f7f1" />
  <rect x="40" y="40" width="560" height="400" rx="24" fill="#d7e6ef" stroke="#94a3b8" stroke-width="8" />
  <rect x="72" y="82" width="220" height="132" rx="18" fill="#ffffff" stroke="#94a3b8" stroke-width="6" />
  <rect x="348" y="82" width="220" height="132" rx="18" fill="#ffffff" stroke="#94a3b8" stroke-width="6" />
  <rect x="72" y="266" width="220" height="132" rx="18" fill="#ffffff" stroke="#94a3b8" stroke-width="6" />
  <rect x="348" y="266" width="220" height="132" rx="18" fill="#ffffff" stroke="#94a3b8" stroke-width="6" />

  <rect x="112" y="108" width="42" height="86" rx="10" fill="#f8fafc" stroke="#64748b" stroke-width="4" />
  <rect x="118" y="100" width="30" height="14" rx="6" fill="#0f172a" />
  <text x="133" y="158" text-anchor="middle" font-size="16" font-family="Arial, sans-serif" fill="#0f172a">milk</text>

  <ellipse cx="420" cy="150" rx="28" ry="36" fill="#fef3c7" stroke="#b45309" stroke-width="4" />
  <ellipse cx="475" cy="150" rx="28" ry="36" fill="#fef3c7" stroke="#b45309" stroke-width="4" />
  <text x="448" y="203" text-anchor="middle" font-size="16" font-family="Arial, sans-serif" fill="#7c2d12">eggs</text>

  <circle cx="150" cy="332" r="34" fill="#16a34a" stroke="#166534" stroke-width="6" />
  <circle cx="192" cy="322" r="30" fill="#22c55e" stroke="#166534" stroke-width="6" />
  <circle cx="228" cy="340" r="32" fill="#15803d" stroke="#166534" stroke-width="6" />
  <text x="184" y="392" text-anchor="middle" font-size="16" font-family="Arial, sans-serif" fill="#14532d">spinach</text>

  <circle cx="422" cy="328" r="30" fill="#ef4444" stroke="#991b1b" stroke-width="6" />
  <circle cx="492" cy="334" r="30" fill="#f87171" stroke="#991b1b" stroke-width="6" />
  <rect x="418" y="286" width="8" height="18" rx="4" fill="#166534" />
  <rect x="488" y="292" width="8" height="18" rx="4" fill="#166534" />
  <text x="456" y="392" text-anchor="middle" font-size="16" font-family="Arial, sans-serif" fill="#7f1d1d">tomatoes</text>
</svg>
